<svg id="Camada_1" data-name="Camada 1" xmlns="http://www.w3.org/2000/svg" viewBox="0 0 130 130"><defs><style>.cls-1{fill:#fff;}.cls-2{fill:#f64f37;}.cls-3{fill:none;stroke-linecap:round;stroke-width:9px;}.cls-3,.cls-4{stroke:#424242;stroke-miterlimit:10;}.cls-4,.cls-5{fill:#424242;}.cls-4{stroke-width:3px;}</style></defs><g id="Camada_2" data-name="Camada 2"><g id="Camada_1-2" data-name="Camada 1-2"><path class="cls-1" d="M107.73,103.09,21.52,25.44s43.14-45.2,87.91,2.29c0,0,18.87,20.47,12.11,47.3,0,0-1.27,12.18-8.48,21.13S107.73,103.09,107.73,103.09Z"/><path class="cls-2" d="M23,26.85l86.22,77.65s-43.15,45.2-87.92-2.29c0,0-18.86-20.47-12.1-47.29,0,0,1.27-12.19,8.48-21.13S23,26.85,23,26.85Z"/><path class="cls-3" d="M108.84,104.26a58,58,0,1,1-42.95-97"/><path class="cls-4" d="M107.77,107.59a3.58,3.58,0,0,1-2.63-1l-31.61-30a4.23,4.23,0,0,1-.33-5.68,3.59,3.59,0,0,1,5.31-.33l31.57,30a4.25,4.25,0,0,1,.37,5.68A3.73,3.73,0,0,1,107.77,107.59Z"/><circle class="cls-5" cx="65.89" cy="65.26" r="24.92"/><circle class="cls-1" cx="65.89" cy="65.26" r="13.55"/></g></g></svg>