<?xml version="1.0" encoding="utf-8"?>
<!-- Generator: Adobe Illustrator 24.1.2, SVG Export Plug-In . SVG Version: 6.00 Build 0)  -->
<svg version="1.1" id="Camada_1" xmlns="http://www.w3.org/2000/svg" xmlns:xlink="http://www.w3.org/1999/xlink" x="0px" y="0px"
	 viewBox="0 0 304.8 91.7" style="enable-background:new 0 0 304.8 91.7;" xml:space="preserve">
<style type="text/css">
	.st0{fill:#FFCD28;}
	.st1{fill:#FFFFFF;}
	.st2{fill:none;stroke:#424242;stroke-width:3;stroke-linecap:round;stroke-miterlimit:10;}
	.st3{fill:#424242;stroke:#424242;stroke-width:0.75;stroke-miterlimit:10;}
	.st4{fill:#424242;}
</style>
<g id="Camada_2_1_">
	<g id="Camada_1-2">
		<path class="st0" d="M0,25.5h30.8v0.3h1.3V26h1v0.3h0.8v0.2h0.5v0.3h0.3V27h0.5v0.3h0.3v0.3h0.3v0.3H36v0.3h0.3v0.2h0.3v0.5h0.3
			v0.5H37v0.8h0.3v1h0.3v8.6h-0.3v1H37v0.8h-0.3v0.5h-0.3v0.5h-0.3v0.3H36v0.3h-0.3v0.3h-0.3v0.3h-0.3v0.3h-0.5v0.3h-0.3v0.3h-0.5
			v0.3h-0.8V45h-1v0.3h-1.3v0.3H10.9v9.9h-0.5v0.3H9.9V56H9.4v0.3H8.6v0.3H8.1v0.2H7.6V57H7v0.3H6.3v0.3H5.7v0.3H5.2v0.3H4.4v0.3
			H3.9v0.3H3.4v0.3H2.9v0.3H2.4v0.3H1.6v0.3H1.1v0.3H0.6v0.3H0V25.5z M10.9,34.9v2.9h14.3v-0.3h0.8v-0.3h0.3V37h0.3v-1.3h-0.3v-0.3
			h-0.3v-0.3h-0.8v-0.2H10.9z"/>
		<path class="st1" d="M69.4,51.8L44.4,29.2c0,0,12.5-13.1,25.6,0.7c0,0,5.5,6,3.5,13.7c0,0-0.4,3.5-2.5,6.1S69.4,51.8,69.4,51.8z"
			/>
		<path class="st0" d="M77.6,25.5h10.9v11.8h0.3V37H89v-0.3h0.3v-0.3h0.3v-0.3h0.3v-0.3h0.3v-0.3h0.3v-0.3h0.3v-0.3h0.3v-0.2h0.3
			v-0.3h0.3v-0.3h0.3V34H92v-0.3h0.3v-0.3h0.3v-0.2h0.3V33H93v-0.3h0.3v-0.3h0.3v-0.3h0.3V32h0.3v-0.5h0.3v-0.3h0.3v-0.3h0.3v-0.3
			h0.3v-0.3h0.3v-0.3h0.3v-0.3h0.3v-0.3h0.3v-0.3h0.3v-0.3h0.3v-0.3h0.3v-0.3h0.2v-0.3h0.3v-0.3h0.3v-0.3H98v-0.3h0.3v-0.2h0.3V27
			h0.3v-0.3H99v-0.3h0.3V26h0.3v-0.3h0.3v-0.3h12.5v0.3H112V26h-0.3v0.3h-0.3v0.2h-0.3v0.3H111v0.6h-0.3v0.3h-0.3v0.3h-0.3v0.3h-0.3
			v0.2h-0.3v0.3h-0.3v0.3h-0.3v0.3h-0.2v0.3h-0.3v0.5h-0.3v0.3h-0.3v0.3h-0.3v0.3h-0.3v0.3h-0.3v0.3H107v0.3h-0.3v0.3h-0.3V32h-0.3
			v0.5H106v0.3h-0.3V33h-0.3v0.3h-0.3v0.3H105v0.3h-0.2V34h-0.3v0.3h-0.3v0.3h-0.3v0.5h-0.3v0.3h-0.3v0.3h-0.3v0.3h-0.3v0.3h-0.3
			v0.3h-0.3v0.3h-0.3v0.5h-0.3v0.3h-0.3v0.3h-0.2v0.3h-0.3v0.3h-0.3v0.3h-0.3v0.3h-0.3V39H100v0.3h-0.3v0.3h-0.3v0.3h-0.3v0.5H99
			v0.3h-0.3v0.3h-0.3v0.3h-0.3v0.3h-0.3v0.2h0.3v0.3h0.3v0.3h0.3v0.3H99v0.3h0.3v0.5h0.3v0.3h0.3v0.3h0.3V44h0.3v0.3h0.3v0.3h0.3
			v0.3h0.3V45h0.3v0.3h0.3v0.3h0.3v0.2h0.3v0.5h0.3v0.3h0.3v0.3h0.3v0.3h0.3v0.3h0.3v0.3h0.3v0.3h0.3v0.5h0.3v0.3h0.3v0.3h0.2v0.2
			h0.3v0.3h0.3v0.3h0.3V50h0.3v0.3h0.3v0.3h0.3V51h0.3v0.3h0.3v0.3h0.3v0.3h0.3v0.3h0.3v0.3h0.3v0.3h0.2v0.3h0.3v0.3h0.3v0.5h0.3
			v0.3h0.3v0.3h0.3v0.3h0.3v0.3h0.3v0.3h0.3v0.3h0.3v0.3h0.3V56H98.5v-0.3h-0.3v-0.3h-0.3v-0.3h-0.3v-0.3h-0.3v-0.3h-0.3v-0.3h-0.3
			v-0.3h-0.3v-0.3h-0.3v-0.3h-0.3v-0.3h-0.3v-0.3h-0.3v-0.3h-0.3v-0.3h-0.3v-0.3h-0.3V52h-0.3v-0.3h-0.3v-0.3H94V51h-0.2v-0.3h-0.3
			v-0.3h-0.3v-0.3H93V50h-0.3v-0.3h-0.3v-0.3h-0.3v-0.3h-0.3v-0.3h-0.3v-0.3h-0.3v-0.2h-0.3v-0.3h-0.3v-0.3h-0.3v-0.3h-0.3v-0.3
			h-0.3v-0.3h-0.3v-0.3h-0.2v-0.3h-0.3v-0.3h-0.3v-0.3h-0.3v-0.3h-0.3v9.6H88v0.3h-0.5V56H87v0.3h-0.8v0.3h-0.5v0.2h-0.5V57h-0.5
			v0.3h-0.8v0.3h-0.5v0.3h-0.5v0.3h-0.8v0.3h-0.5v0.3H81v0.3h-0.5v0.3H80v0.3h-0.8v0.3h-0.5v0.3h-0.5v0.3h-0.5L77.6,25.5z"/>
		<path class="st0" d="M121.1,25.5h27.4v8.9H125v2.3h23.5v7.8H125v2.6h23.5V56H124v-0.3h-2.9v-0.3h-1.3v-0.3h-0.8v-0.3h-0.8v-0.3
			h-0.5v-0.3h-0.5v-0.2H117v-0.3h-0.3v-0.3h-0.5v-0.3h-0.3v-0.3h-0.3v-0.5h-0.3v-0.3h-0.3v-0.5h-0.3v-0.3h-0.3v-0.8h-0.3V30.4h0.3
			v-0.8h0.3v-0.5h0.3v-0.5h0.3v-0.3h0.3v-0.5h0.3v-0.3h0.3v-0.2h0.5V27h0.3v-0.3h0.5v-0.3h0.5v-0.3h0.5V26h1v-0.3h1.6L121.1,25.5z"
			/>
		<path class="st2" d="M69.8,52.2c-3.1,3.4-7.5,5.5-12.5,5.5c-9.3,0-16.9-7.6-16.9-16.9S48,24,57.3,24"/>
		<path class="st3" d="M68.9,52.5c-0.3,0-0.6-0.1-0.8-0.3l-8.6-8.1c-0.5-0.4-0.5-1.2-0.1-1.7c0.4-0.5,1.1-0.5,1.5-0.1l8.6,8.1
			c0.5,0.4,0.5,1.2,0.1,1.7C69.4,52.4,69.2,52.5,68.9,52.5z"/>
		<circle class="st4" cx="57.3" cy="40.8" r="7.2"/>
		<circle class="st1" cx="57.3" cy="40.8" r="3.9"/>
		<g>
			<path class="st1" d="M150.7,26.2h26.7v0.3h1.5v0.3h1v0.3h0.5v0.3h0.5v0.3h0.5v0.3h0.3v0.3h0.5v0.3h0.3v0.3h0.3V29h0.3v0.3h0.3
				v0.5h0.3v0.5h0.3V31h0.3v6.6h-0.3v0.8h-0.3v0.5h-0.3v0.5H183v0.3h-0.3v0.5h-0.3v0.3h-0.3v0.3h-0.5v0.5h0.5v0.3h0.3v0.3h0.3v0.5
				h0.3v0.3h0.3v0.5h0.3v0.5h0.3v0.8h0.3v6.6h-0.3v0.8h-0.3v0.3h-0.3v0.5H183v0.3h-0.3v0.5h-0.3v0.3h-0.3v0.3h-0.5v0.3h-0.3v0.3
				h-0.3v0.3h-0.5v0.3h-0.5v0.3h-0.8v0.3h-0.8v0.3h-1.3v0.3h-2.8v0.3h-23.9V26.2z M159.1,34.8v2.3h13.2v-0.3h0.8v-0.3h0.3v-0.3h0.3
				v-0.8h-0.3v-0.3h-0.3v-0.3h-0.8v-0.3H159.1z M159.1,44.7v2.5h13.2V47h0.8v-0.3h0.3v-0.3h0.3v-1h-0.3v-0.3h-0.3V45h-0.8v-0.3
				H159.1z"/>
			<path class="st1" d="M188,26.2h10.7v8.6h16.8v-8.6h10.4v12.7h-0.3v1h-0.3v0.8h-0.3v0.5h-0.3v0.3h-0.3v0.3h-0.3v0.3h-0.3v0.3h-0.3
				v0.3h-0.3v0.3h-0.3v0.3h-0.5v0.3h-0.5v0.3h-0.8v0.3h-1.3v0.3h-7.9v12.2h-0.8v0.3h-0.5v0.3h-0.8v0.3h-0.5v0.3h-0.8v0.3h-0.8v0.3
				h-0.5v0.3H207v0.3h-0.8v0.3h-0.5v0.3H205v0.3h-0.5v0.3h-0.8v0.3H203v0.3h-0.5v0.3h-0.8v-16h-7.9v-0.3h-1.3v-0.3h-0.8v-0.3H191
				v-0.3h-0.5v-0.3h-0.3v-0.3H190v-0.3h-0.3v-0.3h-0.3v-0.3h-0.3v-0.3H189v-0.3h-0.3v-0.5h-0.3v-0.5h-0.3v-0.8H188V26.2z"/>
			<path class="st1" d="M228.6,26.2h33.3v8.6h-11.4v21.3h-0.8v0.3h-0.5v0.3h-0.8v0.3h-0.5v0.3h-0.8v0.3h-0.8v0.3h-0.5v0.3h-0.8v0.3
				h-0.8v0.3h-0.5v0.3h-0.8v0.3h-0.5v0.3h-0.8v0.3h-0.8v0.3h-0.5v0.3h-0.8V34.8h-11.2V26.2z"/>
			<path class="st1" d="M273.4,26.2H300v8.6h-22.9v2.3H300v7.6h-22.9v2.5H300v8.6h-23.9v-0.3h-2.8v-0.3h-1.3v-0.3h-0.8v-0.3h-0.8
				v-0.3H270v-0.3h-0.5v-0.3h-0.3v-0.3H269v-0.3h-0.5v-0.3h-0.3v-0.3H268v-0.5h-0.3v-0.3h-0.3v-0.5h-0.3v-0.3H267v-0.8h-0.3V31h0.3
				v-0.8h0.3v-0.5h0.3v-0.5h0.3V29h0.3v-0.5h0.3v-0.3h0.3v-0.3h0.5v-0.3h0.3v-0.3h0.5v-0.3h0.5v-0.3h0.5v-0.3h1v-0.3h1.5V26.2z"/>
		</g>
		<path class="st0" d="M38.7,31.3h-0.3v-0.8h-0.3V30h-0.3v-0.5h-0.3v-0.2h-0.3V29h-0.3v-0.3h-0.3v-0.3h-0.3v-0.3h-0.5v-0.3h-0.3
			v-0.3h-0.5v-0.2h-0.8v-0.3h-1v-0.3h-1.3v-0.3H1.4v34.7H2v-0.3h0.5v-0.3H3v-0.3h0.8v-0.3h0.5V60h0.5v-0.3h0.5v-0.3h0.5v-0.3h0.8V59
			h0.5v-0.3h0.5v-0.3h0.8v-0.3H9v-0.3h0.5v-0.2H10v-0.3h0.8v-0.3h0.5v-0.3h0.5v-0.3h0.5v-9.9h19.8v-0.3h1.3v-0.3h1v-0.3h0.8v-0.3
			h0.5v-0.3h0.3v-0.3h0.5v-0.3h0.3v-0.3h0.3v-0.3h0.3v-0.3h0.3v-0.3h0.3v-0.5h0.3v-0.5h0.3V42h0.3v-1H39v-8.6h-0.3V31.3z M28,38.1
			h-0.3v0.3h-0.3v0.3h-0.8v0.3H12.4V36h14.3v0.2h0.8v0.3h0.3v0.3H28V38.1z"/>
	</g>
</g>
</svg>
