<svg width="74" height="53" viewBox="0 0 74 53" fill="none" xmlns="http://www.w3.org/2000/svg">
<path d="M74 26.5C74 41.1355 62.1356 53 47.5 53L0.615417 53L0.615422 -6.41549e-06L47.5 -2.3167e-06C62.1356 -1.03722e-06 74 11.8645 74 26.5V26.5Z" fill="#E53935"/>
<path d="M46.4286 15.5H27.5665C26.7022 15.5 26 16.1797 26 17.0141V34.9859C26 35.8203 26.7022 36.5 27.5665 36.5H46.4286C47.2929 36.5 48 35.8203 48 34.9859V17.0141C48 16.1797 47.2929 15.5 46.4286 15.5ZM32.6491 33.5H29.3884V23.4781H32.654V33.5H32.6491ZM31.0187 22.1094C29.9728 22.1094 29.1281 21.2984 29.1281 20.3047C29.1281 19.3109 29.9728 18.5 31.0187 18.5C32.0598 18.5 32.9094 19.3109 32.9094 20.3047C32.9094 21.3031 32.0647 22.1094 31.0187 22.1094V22.1094ZM44.8719 33.5H41.6112V28.625C41.6112 27.4625 41.5866 25.9672 39.917 25.9672C38.2179 25.9672 37.9576 27.2328 37.9576 28.5406V33.5H34.6969V23.4781H37.825V24.8469H37.8692C38.3062 24.0594 39.3719 23.2297 40.958 23.2297C44.258 23.2297 44.8719 25.3062 44.8719 28.0062V33.5V33.5Z" fill="#FFCD28"/>
</svg>
