<svg width="74" height="53" viewBox="0 0 74 53" fill="none" xmlns="http://www.w3.org/2000/svg">
<path d="M74 26.5C74 41.1355 62.1356 53 47.5 53L0.615417 53L0.615422 -3.69331e-05L47.5 -3.28343e-05C62.1356 -3.15548e-05 74 11.8644 74 26.5V26.5Z" fill="#E53935"/>
<circle cx="37.6524" cy="26.6666" r="10.4929" stroke="#F64F37" stroke-width="2.71795"/>
<circle cx="37.6524" cy="26.6666" r="1.48148" fill="#F64F37"/>
<rect x="41" y="25" width="7" height="3" fill="#F64F37"/>
<rect x="27" y="25" width="7" height="3" fill="#F64F37"/>
<path fill-rule="evenodd" clip-rule="evenodd" d="M37.6524 29.1111C39.0024 29.1111 40.0969 28.0167 40.0969 26.6666C40.0969 25.3166 39.0024 24.2222 37.6524 24.2222C36.3024 24.2222 35.208 25.3166 35.208 26.6666C35.208 28.0167 36.3024 29.1111 37.6524 29.1111ZM37.6524 31.1111C40.107 31.1111 42.0969 29.1212 42.0969 26.6666C42.0969 24.212 40.107 22.2222 37.6524 22.2222C35.1978 22.2222 33.208 24.212 33.208 26.6666C33.208 29.1212 35.1978 31.1111 37.6524 31.1111Z" fill="#F64F37"/>
</svg>
